<?xml version="1.0" encoding="utf-8"?>
<!-- Generator: Adobe Illustrator 16.2.0, SVG Export Plug-In . SVG Version: 6.00 Build 0)  -->
<!DOCTYPE svg PUBLIC "-//W3C//DTD SVG 1.1//EN" "http://www.w3.org/Graphics/SVG/1.1/DTD/svg11.dtd">
<svg version="1.1" id="Слой_1" xmlns="http://www.w3.org/2000/svg" xmlns:xlink="http://www.w3.org/1999/xlink" x="0px" y="0px"
	 width="163.92px" height="31.773px" viewBox="0 0 163.92 31.773" enable-background="new 0 0 163.92 31.773" xml:space="preserve">
<g>
	<defs>
		<path id="SVGID_1_" d="M52.757,11.709v3.132h1.214c1.38,0,2.07-0.544,2.07-1.634c0-0.544-0.186-0.93-0.557-1.157
			c-0.373-0.226-0.962-0.341-1.772-0.341H52.757z M55.912,20.238c0.445-0.253,0.667-0.723,0.667-1.41
			c0-1.245-0.796-1.867-2.389-1.867h-1.433v3.656h1.194C54.814,20.617,55.467,20.491,55.912,20.238z M59.078,16.786
			c0.577,0.494,0.866,1.232,0.866,2.217c0,1.439-0.528,2.454-1.583,3.043c-1.055,0.591-2.531,0.885-4.43,0.885h-4.439h-1.715v-0.575
			c0-0.925,0.768-1.676,1.715-1.676v-8.341l2.288-0.625h-2.288v-0.005c-0.947,0-1.715-0.746-1.715-1.671v-0.58l5.618-0.004
			c1.936,0,3.417,0.269,4.438,0.808c1.022,0.537,1.533,1.416,1.533,2.633c0,0.792-0.243,1.431-0.727,1.917
			c-0.485,0.486-1.085,0.814-1.801,0.982C57.753,15.963,58.5,16.293,59.078,16.786z M65.989,14.103
			c-0.627,0-1.118,0.174-1.469,0.521c-0.24,0.238-0.424,0.545-0.554,0.924c-0.096,0.284,0.112,0.579,0.418,0.579h3.528
			c0-0.255-0.034-0.504-0.101-0.745c-0.067-0.239-0.176-0.456-0.327-0.644c-0.152-0.189-0.351-0.342-0.597-0.46
			C66.641,14.162,66.341,14.103,65.989,14.103z M70.246,20.439l0.542,0.654c-0.338,0.38-0.703,0.687-1.094,0.925
			c-0.391,0.237-0.792,0.423-1.205,0.558c-0.412,0.135-0.824,0.227-1.237,0.278c-0.412,0.051-0.805,0.078-1.178,0.078
			c-0.049,0-0.099-0.001-0.148-0.002c-0.712-0.014-1.383-0.137-2.014-0.365c-0.672-0.245-1.261-0.607-1.764-1.089
			c-0.504-0.483-0.903-1.081-1.195-1.797c-0.292-0.716-0.439-1.549-0.439-2.5c0-0.715,0.125-1.393,0.375-2.033
			c0.25-0.641,0.609-1.201,1.078-1.683s1.036-0.864,1.702-1.147c0.666-0.282,1.418-0.423,2.256-0.423
			c0.727,0,1.391,0.111,1.992,0.33c0.604,0.222,1.121,0.541,1.554,0.962c0.433,0.419,0.771,0.933,1.015,1.542
			c0.243,0.61,0.365,1.301,0.365,2.071c0,0.241-0.011,0.438-0.032,0.589c-0.021,0.15-0.06,0.272-0.116,0.361
			c-0.057,0.089-0.132,0.152-0.227,0.185c-0.095,0.035-0.217,0.053-0.365,0.053h-5.718c-0.28,0-0.469,0.25-0.435,0.522
			c0.081,0.655,0.31,1.105,0.668,1.424c0.338,0.301,0.75,0.49,1.234,0.566c0.162,0.025,0.332,0.038,0.51,0.038
			c0.38,0,0.708-0.045,0.983-0.134c0.275-0.09,0.519-0.19,0.734-0.3c0.059-0.029,0.116-0.059,0.171-0.088l0.001,0.003
			c0.218-0.105,0.463-0.164,0.723-0.164c0.511,0,0.967,0.229,1.267,0.586H70.246z M78.707,21.227l0.507,0.775
			c-0.423,0.31-0.899,0.542-1.427,0.696c-0.529,0.156-1.076,0.234-1.639,0.234c-0.521,0-0.98-0.075-1.379-0.222
			c-0.398-0.149-0.732-0.358-1.004-0.63c-0.272-0.273-0.477-0.601-0.618-0.987c-0.141-0.385-0.211-0.816-0.211-1.29v-5.536h-0.931
			c-0.168,0-0.313-0.052-0.433-0.159c-0.12-0.107-0.18-0.263-0.18-0.47v-0.819c0-0.251,0.182-0.461,0.424-0.51l0.996-0.189
			c0.201-0.039,0.356-0.189,0.404-0.381l0.565-2.294c0.084-0.329,0.324-0.495,0.718-0.495h1.712v3.129h2.664v1.603
			c0,0.323-0.269,0.585-0.6,0.585h-2.063v5.319c0,0.248,0.062,0.453,0.185,0.614c0.123,0.163,0.302,0.243,0.534,0.243
			c0.069,0,0.132-0.004,0.188-0.012l0.167-0.008C77.894,20.423,78.424,20.747,78.707,21.227z M86.709,21.227l0.507,0.775
			c-0.423,0.31-0.899,0.542-1.427,0.696c-0.529,0.156-1.075,0.234-1.639,0.234c-0.521,0-0.981-0.075-1.379-0.222
			c-0.398-0.149-0.733-0.358-1.003-0.63c-0.272-0.273-0.477-0.601-0.619-0.987c-0.141-0.385-0.211-0.816-0.211-1.29v-5.536h-0.93
			c-0.169,0-0.313-0.052-0.434-0.159c-0.12-0.107-0.179-0.263-0.179-0.47v-0.819c0-0.251,0.182-0.461,0.424-0.51l0.996-0.189
			c0.2-0.039,0.355-0.189,0.404-0.381l0.564-2.294c0.085-0.329,0.324-0.495,0.718-0.495h1.712v3.129h2.664v1.603
			c0,0.323-0.268,0.585-0.6,0.585h-2.064v5.319c0,0.248,0.062,0.453,0.186,0.614c0.123,0.163,0.301,0.243,0.533,0.243
			c0.069,0,0.132-0.004,0.188-0.012l0.167-0.008C85.896,20.423,86.426,20.747,86.709,21.227z M93.715,26.786
			c-0.604,1.972-3.081,1.317-3.721,1.161c-0.331-0.082-0.651-0.176-0.962-0.277l-0.054-3.053c0.212,0.085,0.423,0.163,0.635,0.216
			c0.253,0.061,0.479,0.092,0.674,0.092c0.268,0,0.478-0.072,0.633-0.217c0.092-0.084,0.185-0.302,0.223-0.489
			c0.03-0.143,0.027-0.322-0.024-0.459l-3.721-11.657h2.806c0.413,0,0.779,0.262,0.904,0.648l1.852,6.393l1.862-6.394
			c0.124-0.385,0.489-0.647,0.902-0.647h2.788L93.715,26.786z M110.809,11.709v3.132h1.213c1.38,0,2.071-0.544,2.071-1.634
			c0-0.544-0.186-0.93-0.557-1.157c-0.373-0.226-0.962-0.341-1.772-0.341H110.809z M113.963,20.238
			c0.445-0.253,0.667-0.723,0.667-1.41c0-1.245-0.796-1.867-2.388-1.867h-1.433v3.656h1.193
			C112.865,20.617,113.519,20.491,113.963,20.238z M117.128,16.786c0.577,0.494,0.866,1.232,0.866,2.217
			c0,1.439-0.528,2.454-1.583,3.043c-1.056,0.591-2.532,0.885-4.43,0.885h-4.439h-1.715v-0.575c0-0.925,0.768-1.676,1.715-1.676
			v-8.341l2.287-0.625h-2.287v-0.005c-0.948,0-1.715-0.746-1.715-1.671v-0.58l5.617-0.004c1.937,0,3.417,0.269,4.439,0.808
			c1.022,0.537,1.533,1.416,1.533,2.633c0,0.792-0.242,1.431-0.726,1.917c-0.485,0.486-1.086,0.814-1.802,0.982
			C115.805,15.963,116.55,16.293,117.128,16.786z M122.391,7.887v15.045h-3.326V9.54c0-0.914,0.757-1.653,1.692-1.653H122.391z
			 M128.803,20.557c0.753,0,1.309-0.26,1.665-0.78c0.355-0.52,0.534-1.31,0.534-2.37c0-1.059-0.179-1.848-0.534-2.364
			c-0.356-0.516-0.911-0.774-1.665-0.774c-0.775,0-1.343,0.258-1.702,0.774c-0.358,0.516-0.539,1.305-0.539,2.364
			c0,1.06,0.181,1.85,0.539,2.37C127.46,20.297,128.028,20.557,128.803,20.557z M128.803,11.893c0.831,0,1.589,0.128,2.272,0.382
			c0.683,0.256,1.27,0.621,1.76,1.095c0.49,0.475,0.87,1.051,1.142,1.729c0.271,0.679,0.406,1.441,0.406,2.287
			c0,0.854-0.135,1.624-0.406,2.308c-0.271,0.685-0.652,1.267-1.142,1.746c-0.49,0.478-1.077,0.847-1.76,1.105
			c-0.683,0.258-1.441,0.387-2.272,0.387c-0.839,0-1.602-0.129-2.289-0.387c-0.687-0.258-1.279-0.627-1.775-1.105
			c-0.497-0.479-0.881-1.061-1.152-1.746c-0.271-0.684-0.408-1.454-0.408-2.308c0-0.846,0.137-1.608,0.408-2.287
			c0.271-0.678,0.655-1.254,1.152-1.729c0.496-0.474,1.088-0.839,1.775-1.095C127.202,12.021,127.964,11.893,128.803,11.893z
			 M144.399,21.36c-0.262,0.259-0.534,0.479-0.814,0.658c-0.375,0.237-0.756,0.424-1.147,0.558
			c-0.391,0.133-0.784,0.227-1.179,0.278c-0.395,0.052-0.779,0.078-1.152,0.078c-0.669,0-1.309-0.124-1.918-0.372
			c-0.61-0.248-1.145-0.608-1.607-1.079c-0.461-0.472-0.828-1.051-1.099-1.74c-0.271-0.688-0.407-1.473-0.407-2.355
			c0-0.77,0.118-1.492,0.354-2.162c0.237-0.672,0.584-1.254,1.046-1.745c0.461-0.492,1.032-0.88,1.713-1.162
			c0.679-0.282,1.467-0.424,2.362-0.424c0.859,0,1.613,0.134,2.261,0.404c0.584,0.241,1.118,0.584,1.599,1.028
			c-0.031,0.246-0.119,0.477-0.252,0.676c-0.292,0.438-0.798,0.728-1.373,0.728c-0.271,0-0.526-0.063-0.75-0.177
			c-0.137-0.069-0.29-0.132-0.46-0.19c-0.217-0.077-0.49-0.115-0.813-0.115c-0.402,0-0.749,0.072-1.042,0.217
			c-0.292,0.144-0.534,0.352-0.724,0.62c-0.19,0.269-0.332,0.597-0.423,0.986c-0.091,0.388-0.138,0.827-0.138,1.316
			c0,1.027,0.203,1.815,0.608,2.366c0.405,0.55,0.964,0.825,1.676,0.825c0.38,0,0.681-0.046,0.903-0.138
			c0.163-0.07,0.286-0.132,0.414-0.211c0.22-0.109,0.488-0.17,0.751-0.17C143.589,20.058,144.256,20.619,144.399,21.36z
			 M151.946,16.476c-0.203,0.256-0.225,0.607-0.054,0.884l3.44,5.539h-2.953c-0.516,0-0.995-0.263-1.261-0.695l-2.069-3.317
			c-0.186-0.305-0.666-0.175-0.666,0.18v3.865h-3.276V9.423c0-0.84,0.697-1.521,1.557-1.521h1.719v7.263
			c0,0.335,0.437,0.478,0.644,0.211l2.251-2.928c0.279-0.35,0.708-0.555,1.161-0.555h3.146L151.946,16.476z M155.268,21.709
			c0.045-0.857,0.77-1.537,1.656-1.537c0.294,0,0.569,0.074,0.809,0.204c0.052,0.03,0.105,0.059,0.159,0.088
			c0.179,0.099,0.388,0.189,0.627,0.273c0.239,0.083,0.54,0.125,0.905,0.125c0.257,0,0.475-0.026,0.653-0.078
			c0.179-0.053,0.321-0.124,0.429-0.214c0.107-0.092,0.186-0.192,0.235-0.303c0.05-0.112,0.075-0.228,0.075-0.347
			c0-0.215-0.075-0.394-0.225-0.533c-0.15-0.14-0.347-0.259-0.589-0.36c-0.243-0.101-0.519-0.196-0.83-0.283
			c-0.311-0.087-0.626-0.187-0.948-0.299c-0.321-0.111-0.637-0.246-0.948-0.402c-0.309-0.156-0.587-0.356-0.83-0.596
			c-0.242-0.241-0.438-0.536-0.588-0.884c-0.15-0.349-0.225-0.771-0.225-1.266c0-0.46,0.091-0.898,0.273-1.313
			s0.455-0.78,0.819-1.093c0.364-0.314,0.821-0.564,1.371-0.748c0.549-0.185,1.192-0.277,1.927-0.277c0.4,0,0.787,0.035,1.162,0.104
			c0.376,0.07,0.727,0.167,1.055,0.293c0.329,0.126,0.628,0.274,0.9,0.444c0.27,0.171,0.506,0.357,0.713,0.56
			c-0.129,0.769-0.817,1.356-1.642,1.356c-0.232,0-0.453-0.047-0.654-0.132c-0.024-0.01-0.047-0.02-0.071-0.031
			c-0.182-0.076-0.387-0.148-0.615-0.214c-0.229-0.067-0.489-0.1-0.782-0.1c-0.421,0-0.745,0.079-0.97,0.235
			c-0.225,0.158-0.336,0.376-0.336,0.654c0,0.203,0.072,0.37,0.219,0.503c0.146,0.132,0.34,0.248,0.583,0.35
			c0.243,0.101,0.518,0.197,0.825,0.287c0.306,0.091,0.621,0.192,0.942,0.304s0.635,0.243,0.941,0.393
			c0.308,0.149,0.583,0.334,0.825,0.554c0.243,0.22,0.437,0.486,0.583,0.799c0.147,0.315,0.22,0.691,0.22,1.131
			c0,0.536-0.101,1.032-0.299,1.486c-0.2,0.453-0.499,0.843-0.895,1.171c-0.396,0.328-0.885,0.583-1.467,0.763
			c-0.582,0.182-1.251,0.273-2.008,0.273c-0.378,0-0.757-0.036-1.135-0.106c-0.379-0.069-0.744-0.163-1.099-0.282
			c-0.353-0.118-0.679-0.259-0.979-0.423C155.74,22.074,155.482,21.898,155.268,21.709z"/>
	</defs>
	<clipPath id="SVGID_2_">
		<use xlink:href="#SVGID_1_"  overflow="visible"/>
	</clipPath>
	<g clip-path="url(#SVGID_2_)">
		<defs>
			<rect id="SVGID_3_" x="-32" y="-38" width="1440" height="128"/>
		</defs>
		<clipPath id="SVGID_4_">
			<use xlink:href="#SVGID_3_"  overflow="visible"/>
		</clipPath>
		<rect x="42.777" y="2.887" clip-path="url(#SVGID_4_)" fill="#E9004C" width="126.144" height="30.29"/>
	</g>
</g>
<path fill-rule="evenodd" clip-rule="evenodd" fill="#E9004C" d="M24.763,16.493c-0.591-0.504-1.355-0.843-2.293-1.016
	c0.734-0.172,1.349-0.507,1.846-1.005c0.496-0.498,0.744-1.152,0.744-1.963c0-1.248-0.523-2.147-1.57-2.699
	c-1.047-0.551-2.563-0.826-4.547-0.826l-5.753,0.003v0.595c0,0.948,0.787,1.712,1.756,1.712v0.004h2.344l-2.344,0.642v8.542
	c-0.97,0-1.756,0.769-1.756,1.717v0.59h1.756h4.547c1.944,0,3.456-0.302,4.536-0.907c1.081-0.604,1.622-1.643,1.622-3.117
	C25.65,17.756,25.354,16.999,24.763,16.493z M18.289,11.294h0.979c0.829,0,1.435,0.117,1.815,0.349s0.571,0.627,0.571,1.186
	c0,1.115-0.707,1.672-2.121,1.672h-1.244V11.294z M21.521,20.029c-0.455,0.26-1.125,0.389-2.008,0.389h-1.224v-3.745h1.468
	c1.631,0,2.447,0.638,2.447,1.912C22.204,19.289,21.977,19.77,21.521,20.029z M20.794,0.22c-0.691-0.291-1.47-0.294-2.162-0.005
	L1.837,7.13C0.822,7.551,0,8.524,0,9.601v12.575c0,1.075,0.821,2.046,1.832,2.469l16.577,6.91c0.691,0.291,1.516,0.291,2.208,0
	l16.515-6.91c1.011-0.423,1.671-1.395,1.671-2.469V9.592c0-1.073-0.636-2.042-1.644-2.467L20.794,0.22z"/>
</svg>
