<svg xmlns="http://www.w3.org/2000/svg" viewBox="0 0 29 24">
  <defs/>
  <g fill="none" fill-rule="nonzero">
    <path fill="#E9004C" d="M27.48 5.383L15.394.17a1.984 1.984 0 00-1.594 0L1.406 5.383C.65 5.709.05 6.429.05 7.25v9.498c0 .805.6 1.542 1.355 1.868l12.24 5.212a2.067 2.067 0 001.628 0l12.189-5.212a2.02 2.02 0 001.234-1.868V7.25c-.017-.822-.48-1.542-1.217-1.868"/>
    <path fill="#FFF" d="M18.326 12.463c-.429-.377-.995-.634-1.697-.772.548-.137.994-.377 1.354-.754.36-.377.548-.874.548-1.474 0-.943-.394-1.629-1.165-2.04-.772-.412-1.886-.617-3.36-.617H9.754v.445c0 .72.583 1.286 1.303 1.286h1.732l-1.732.48v6.446c-.72 0-1.303.583-1.303 1.303v.445h4.663c1.44 0 2.554-.222 3.343-.685.806-.463 1.2-1.235 1.2-2.349.017-.771-.189-1.337-.634-1.714m-4.783-3.926h.72c.617 0 1.063.086 1.337.257.274.172.429.48.429.892 0 .84-.515 1.268-1.56 1.268h-.926V8.537zm2.4 6.6c-.343.189-.823.292-1.474.292h-.926V12.6h1.08c1.2 0 1.8.48 1.8 1.44.017.531-.154.891-.48 1.097"/>
  </g>
</svg>
